<svg width="26" height="26" viewBox="0 0 26 26" fill="none" xmlns="http://www.w3.org/2000/svg">
<path fill-rule="evenodd" clip-rule="evenodd" d="M12.9999 2.99997C16.1978 2.99997 16.736 2.94289 17.9999 2.99997C19.1689 3.05226 19.5771 3.83373 19.9999 3.99997C20.5607 4.21861 20.5817 4.58166 20.9999 4.99997C21.4179 5.41819 21.786 5.43916 21.9999 5.99997C22.1612 6.42298 22.9476 6.83075 22.9999 7.99997C23.0569 9.2642 22.9999 9.80135 22.9999 13C22.9999 16.1986 23.0569 16.7358 22.9999 18C22.9476 19.1692 22.1662 19.577 21.9999 20C21.7813 20.5608 21.4179 20.5817 20.9999 21C20.5817 21.4183 20.5607 21.7861 19.9999 22C19.5771 22.1615 19.1689 22.9477 17.9999 23C16.736 23.057 16.1978 23 12.9999 23C9.80201 23 9.26386 23.057 7.99994 23C6.83101 22.9477 6.42284 22.1663 5.99994 22C5.87899 21.9529 6.10771 22.0519 5.99994 22C5.93567 21.9688 5.06071 22.0334 4.99994 22C4.69129 21.8299 5.27376 21.2741 4.99994 21C4.58182 20.5817 4.21359 20.5608 3.99994 20C3.83828 19.577 3.05223 19.1692 2.99994 18C2.97419 17.4287 3.01101 16.5508 2.99994 16C2.98677 15.3319 2.99994 14.7532 2.99994 13C2.99994 9.80135 2.94296 9.2642 2.99994 7.99997C3.05223 6.83075 3.83339 6.42298 3.99994 5.99997C4.21848 5.43916 4.58182 5.41819 4.99994 4.99997C5.41785 4.58166 5.43913 4.21392 5.99994 3.99997C6.42284 3.83842 6.83101 3.05226 7.99994 2.99997C9.26386 2.9382 9.8067 2.99997 12.9999 2.99997ZM12.9999 0.999973C9.74972 0.999973 9.27813 0.942904 7.99994 0.999973C6.72663 1.05697 5.76033 1.70528 4.99994 1.99997C4.21121 2.30411 3.66533 2.33458 2.99994 2.99997C2.33485 3.66536 2.30882 4.21573 1.99994 4.99997C1.70536 5.76046 1.05692 6.72148 0.999938 7.99997C0.942949 9.27367 0.999938 9.74906 0.999938 13C0.999938 14.3807 0.992633 15.3602 0.999938 16C1.00987 16.8665 0.967207 17.2645 0.999938 18C1.05692 19.2737 1.70536 20.2348 1.99994 21C2.30415 21.7889 2.33485 22.3346 2.99994 23C3.66533 23.6654 4.2159 23.691 4.99994 24C5.76033 24.2946 6.72174 24.943 7.99994 25C9.27823 25.0571 9.74503 25 12.9999 25C16.255 25 16.7216 25.0571 17.9999 25C19.2734 24.943 20.2349 24.2946 20.9999 24C21.7887 23.6958 22.3348 23.6654 22.9999 23C23.6653 22.3346 23.6911 21.7842 23.9999 21C24.2945 20.2395 24.943 19.2786 24.9999 18C25.057 16.7215 24.9999 16.2557 24.9999 13C24.9999 9.74427 25.057 9.27847 24.9999 7.99997C24.943 6.72627 24.2945 5.76525 23.9999 4.99997C23.6961 4.21104 23.6653 3.66526 22.9999 2.99997C22.3348 2.33452 21.784 2.30893 20.9999 1.99997C20.2398 1.70535 19.2781 1.05697 17.9999 0.999973C16.7171 0.947654 16.2502 0.999973 12.9999 0.999973ZM12.9999 6.99997C9.60712 6.99997 6.99994 9.60167 6.99994 13C6.99994 16.3982 9.60243 19 12.9999 19C16.3974 19 18.9999 16.3982 18.9999 13C18.9999 9.60167 16.3974 6.99997 12.9999 6.99997ZM12.9999 17C10.795 17 8.99994 15.2053 8.99994 13C8.99994 10.7947 10.795 8.99997 12.9999 8.99997C15.2048 8.99997 16.9999 10.7947 16.9999 13C16.9999 15.2053 15.2048 17 12.9999 17ZM20.9999 6.99997C20.9999 7.79269 19.7925 7.99997 18.9999 7.99997C18.2074 7.99997 17.9999 7.79269 17.9999 6.99997C17.9999 6.20715 18.2074 4.99997 18.9999 4.99997C19.7925 4.99997 20.9999 6.20715 20.9999 6.99997Z" fill="white"/>
</svg>
